<?xml version="1.0" encoding="UTF-8" standalone="no"?>
<svg
   id="svg2453"
   height="16"
   width="16"
   version="1.0"
   xmlns:xlink="http://www.w3.org/1999/xlink"
   xmlns="http://www.w3.org/2000/svg"
   xmlns:svg="http://www.w3.org/2000/svg"
   xmlns:rdf="http://www.w3.org/1999/02/22-rdf-syntax-ns#"
   xmlns:cc="http://creativecommons.org/ns#"
   xmlns:dc="http://purl.org/dc/elements/1.1/">
  <metadata
     id="metadata35">
    <rdf:RDF>
      <cc:Work
         rdf:about="">
        <dc:format>image/svg+xml</dc:format>
        <dc:type
           rdf:resource="http://purl.org/dc/dcmitype/StillImage" />
      </cc:Work>
    </rdf:RDF>
  </metadata>
  <defs
     id="defs2455">
    <linearGradient
       id="linearGradient3707-319-631-407-324-616-674-812-821-107-178-392-400-6-3-549-901-1-9-100-4-2">
      <stop
         offset="0"
         style="stop-color:#000000;stop-opacity:1"
         id="stop17839-7-3" />
      <stop
         offset="1"
         style="stop-color:#161616;stop-opacity:1"
         id="stop17841-4-8" />
    </linearGradient>
    <linearGradient
       xlink:href="#linearGradient3707-319-631-407-324-616-674-812-821-107-178-392-400-6-3-549-901-1-9-100-4-2"
       id="linearGradient6504"
       x1="2.251761"
       y1="14.272394"
       x2="62.399254"
       y2="14.272394"
       gradientUnits="userSpaceOnUse"
       gradientTransform="matrix(0.25358538,0,0,0.13760719,-0.19727552,0.0360159)" />
    <linearGradient
       xlink:href="#linearGradient3707-319-631-407-324-616-674-812-821-107-178-392-400-6-3-549-901-1-9-100-4-2"
       id="linearGradient4231"
       gradientUnits="userSpaceOnUse"
       gradientTransform="matrix(0.0363835,0,0,0.19939497,6.8331183,-1.6197111)"
       x1="2.251761"
       y1="14.272394"
       x2="62.399254"
       y2="14.272394" />
    <linearGradient
       id="linearGradient2143">
      <stop
         style="stop-color:#ffffff;stop-opacity:1;"
         offset="0"
         id="stop2135" />
      <stop
         id="stop2137"
         offset="0.05422588"
         style="stop-color:#ffffff;stop-opacity:0.23529412" />
      <stop
         style="stop-color:#ffffff;stop-opacity:0.15686275"
         offset="1"
         id="stop2139" />
      <stop
         style="stop-color:#ffffff;stop-opacity:0.39215687"
         offset="1"
         id="stop2141" />
    </linearGradient>
    <linearGradient
       id="linearGradient6532-5">
      <stop
         style="stop-color:#64baff;stop-opacity:1"
         offset="0"
         id="stop6534-6" />
      <stop
         style="stop-color:#0d52bf;stop-opacity:1"
         offset="1"
         id="stop6536-2" />
    </linearGradient>
    <linearGradient
       xlink:href="#linearGradient2143"
       id="linearGradient2875"
       x1="21"
       y1="5"
       x2="21"
       y2="23.489967"
       gradientUnits="userSpaceOnUse"
       gradientTransform="matrix(0.47825162,0,0,0.5002918,0.34803962,-0.7518383)" />
    <linearGradient
       xlink:href="#linearGradient6532-5"
       id="linearGradient3189"
       gradientUnits="userSpaceOnUse"
       gradientTransform="matrix(0.21895497,0,0,0.25172144,0.97011951,-2.1481868)"
       x1="32.10651"
       y1="1.6582414"
       x2="32.10651"
       y2="60.738617" />
    <linearGradient
       xlink:href="#linearGradient3707-319-631-407-324-616-674-812-821-107-178-392-400-6-3-549-901-1-9-100-4-2"
       id="linearGradient1676"
       gradientUnits="userSpaceOnUse"
       gradientTransform="matrix(0.25358538,0,0,-0.13760719,-0.19727552,14.963986)"
       x1="2.251761"
       y1="14.272394"
       x2="62.399254"
       y2="14.272394" />
  </defs>
  <g
     transform="translate(166.3815,-1014.9704)"
     id="layer1" />
  <g
     transform="translate(135.69563,-1031.2078)"
     id="layer1-3" />
  <g
     transform="translate(5.138714,-990.69907)"
     id="layer1-9" />
  <path
     id="rect5505-21-3-8-5-2-6-8-2"
     d="M 14.500003,12.499999 V 2.4999975 H 1.4999975 V 12.499999 Z"
     style="color:#000000;display:inline;overflow:visible;visibility:visible;fill:url(#linearGradient3189);fill-opacity:1;fill-rule:nonzero;stroke:#002e99;stroke-width:1;stroke-opacity:0.592157;marker:none;enable-background:accumulate" />
  <path
     style="opacity:0.5;fill:none;stroke:url(#linearGradient2875);stroke-width:0.999996;stroke-linecap:butt;stroke-linejoin:miter;stroke-miterlimit:4;stroke-dasharray:none"
     d="m 2.5031608,2.5001157 10.9956902,0.00277 0.0011,8.9971113 H 2.500174 Z"
     id="rect4945" />
  <path
     id="path4227"
     d="m 9.0599304,1.9323213 0.0081,-1.40778397 -2.1356185,-0.019925 C 6.9242319,1.0296228 6.9318726,1.4190745 6.9318726,1.9398862 h 1.0747696 z"
     style="color:#000000;display:inline;overflow:visible;visibility:visible;fill:#4d4d4d;fill-opacity:1;fill-rule:nonzero;stroke:url(#linearGradient4231);stroke-width:1;stroke-miterlimit:4;stroke-dasharray:none;stroke-opacity:1;marker:none;enable-background:accumulate" />
  <path
     id="path4473"
     d="M 15.500003,2.5000025 V 1.7666667 c 0,-0.1477345 -0.226779,-0.2666692 -0.508473,-0.2666692 H 1.0084714 c -0.2816955,0 -0.5084748,0.1189347 -0.5084748,0.2666692 v 0.7333358 z"
     style="color:#000000;display:inline;overflow:visible;visibility:visible;fill:#4d4d4d;fill-opacity:1;fill-rule:nonzero;stroke:url(#linearGradient6504);stroke-width:0.999999;stroke-miterlimit:4;stroke-dasharray:none;stroke-opacity:1;marker:none;enable-background:accumulate" />
  <path
     style="fill:#000000;fill-opacity:1;fill-rule:evenodd;stroke:#414141;stroke-width:0.47245;stroke-miterlimit:4;stroke-dasharray:none;stroke-opacity:1"
     d="m 1.8244761,15.752103 c 0,0 1.2257417,0.01323 1.7402335,0.01152 l 3.6329852,-1.411736 c 0.3089458,-0.126082 1.1091046,-0.128747 1.4346283,-0.0048 l 3.8584789,1.404506 1.721109,0.0067 L 8.5126145,13.45974 C 8.3695159,13.40523 8.1079015,13.66539 7.8269521,13.66301 7.4749699,12.709362 2.625016,15.403488 1.8244761,15.752065 Z"
     id="path4191-6" />
  <rect
     style="opacity:0.5;vector-effect:none;fill:#002e99;fill-opacity:1;stroke:none;stroke-width:0.999993;stroke-linecap:butt;stroke-linejoin:miter;stroke-miterlimit:100;stroke-dasharray:none;stroke-dashoffset:0;stroke-opacity:0.156863;marker:none;paint-order:normal"
     id="rect1289"
     width="12"
     height="1"
     x="2"
     y="3" />
  <path
     id="path3088-5-3"
     style="color:#000000;font-style:normal;font-variant:normal;font-weight:normal;font-stretch:normal;font-size:medium;line-height:normal;font-family:Sans;-inkscape-font-specification:Sans;font-variation-settings:normal;text-indent:0;text-align:start;text-decoration:none;text-decoration-line:none;letter-spacing:normal;word-spacing:normal;text-transform:none;writing-mode:lr-tb;direction:ltr;baseline-shift:baseline;text-anchor:start;display:inline;overflow:visible;visibility:visible;opacity:0.07;vector-effect:none;fill:#000000;fill-opacity:1;stroke:none;stroke-width:0.907385;stroke-linecap:butt;stroke-linejoin:miter;stroke-miterlimit:4;stroke-dasharray:none;stroke-dashoffset:0;stroke-opacity:1;-inkscape-stroke:none;marker:none;enable-background:accumulate;stop-color:#000000;stop-opacity:1"
     d="M 3,5 A 1.0001,1.0001 0 0 0 2,6 V 7 A 1.0001,1.0001 0 0 0 2.5,7.5 1.0001,1.0001 0 0 0 2,8 V 9 A 1.0001,1.0001 0 0 0 2.5,9.5 1.0001,1.0001 0 0 0 2,10 v 1 a 1.0001,1.0001 0 0 0 1,1 H 4 A 1.0001,1.0001 0 0 0 4.5,11.5 1.0001,1.0001 0 0 0 5,12 H 6 A 1.0001,1.0001 0 0 0 6.5,11.5 1.0001,1.0001 0 0 0 7,12 h 1 a 1.0001,1.0001 0 0 0 0.4804688,-0.480469 c 0.076042,0.07976 0.064834,0.220935 0.1582031,0.279297 C 9.0179374,12.035896 9.5716546,12.070927 10,11.824219 a 1.0001,1.0001 0 0 0 0.04102,-0.02539 l 3.330078,-2.1386718 c 0.840025,-0.5345571 0.840024,-1.7759894 0,-2.3105468 L 10.046875,5.2148438 C 9.8479483,5.0847957 9.6147363,5.0096579 9.3769531,5 A 1.0001,1.0001 0 0 0 9.375,5 C 9.2682053,4.99582 9.1477762,5.0047354 9.0195312,5.0351562 A 1.0001,1.0001 0 0 0 8.9707031,5.046875 C 8.741252,5.1136977 8.5855431,5.2747435 8.4316406,5.4316406 A 1.0001,1.0001 0 0 0 8,5 H 6 A 1.0001,1.0001 0 0 0 5.5,5.5 1.0001,1.0001 0 0 0 5,5 Z" />
  <path
     id="path3088-5"
     style="color:#000000;font-style:normal;font-variant:normal;font-weight:normal;font-stretch:normal;font-size:medium;line-height:normal;font-family:Sans;-inkscape-font-specification:Sans;text-indent:0;text-align:start;text-decoration:none;text-decoration-line:none;letter-spacing:normal;word-spacing:normal;text-transform:none;writing-mode:lr-tb;direction:ltr;baseline-shift:baseline;text-anchor:start;display:inline;overflow:visible;visibility:visible;fill:#000000;fill-opacity:1;stroke:none;stroke-width:0.907385;stroke-miterlimit:4;stroke-dasharray:none;marker:none;enable-background:accumulate;font-variation-settings:normal;opacity:0.15;vector-effect:none;stroke-linecap:butt;stroke-linejoin:miter;stroke-dashoffset:0;stroke-opacity:1;-inkscape-stroke:none;stop-color:#000000;stop-opacity:1"
     d="m 3,6.0002784 v 1 h 2 v -1 z m 3,0 v 1 h 2 v -1 z m 3.3359375,0 C 9.3070675,5.9991484 9.278203,6.0014009 9.25,6.0080909 9.0999708,6.0517837 8.9969775,6.1992785 9,6.3655128 V 10.64481 c 0.00486,0.271425 0.2764759,0.44124 0.5,0.3125 l 3.333984,-2.1406254 c 0.22102,-0.140648 0.22102,-0.4823986 0,-0.6230468 L 9.5,6.0530128 C 9.4504455,6.0206166 9.3939782,6.0026358 9.3359375,6.0002784 Z M 3,8.0002784 v 1 h 1 v -1 z m 2,0 v 1 h 3 v -1 z M 3,10.000278 v 1 h 1 v -1 z m 2,0 v 1 h 1 v -1 z m 2,0 v 1 h 1 v -1 z" />
  <path
     id="path3088"
     style="color:#000000;font-style:normal;font-variant:normal;font-weight:normal;font-stretch:normal;font-size:medium;line-height:normal;font-family:Sans;-inkscape-font-specification:Sans;text-indent:0;text-align:start;text-decoration:none;text-decoration-line:none;letter-spacing:normal;word-spacing:normal;text-transform:none;writing-mode:lr-tb;direction:ltr;baseline-shift:baseline;text-anchor:start;display:inline;overflow:visible;visibility:visible;fill:#f9f9f9;fill-opacity:1;stroke:none;stroke-width:0.540437;stroke-miterlimit:4;stroke-dasharray:none;marker:none;enable-background:accumulate"
     d="M 3 5 L 3 6 L 5 6 L 5 5 L 3 5 z M 6 5 L 6 6 L 8 6 L 8 5 L 6 5 z M 9.3359375 5 C 9.3070675 4.99887 9.278203 5.0011225 9.25 5.0078125 C 9.0999708 5.0515053 8.9969775 5.1990001 9 5.3652344 L 9 9.6445312 C 9.0048637 9.9159567 9.2764759 10.085772 9.5 9.9570312 L 12.833984 7.8164062 C 13.055004 7.6757582 13.055004 7.3340076 12.833984 7.1933594 L 9.5 5.0527344 C 9.4504455 5.0203382 9.3939782 5.0023574 9.3359375 5 z M 3 7 L 3 8 L 4 8 L 4 7 L 3 7 z M 5 7 L 5 8 L 8 8 L 8 7 L 5 7 z M 3 9 L 3 10 L 4 10 L 4 9 L 3 9 z M 5 9 L 5 10 L 6 10 L 6 9 L 5 9 z M 7 9 L 7 10 L 8 10 L 8 9 L 7 9 z " />
  <path
     id="path4473-7"
     d="m 15.500003,12.499999 v 0.733336 c 0,0.147735 -0.226779,0.26667 -0.508473,0.26667 H 1.0084714 c -0.2816955,0 -0.5084748,-0.118935 -0.5084748,-0.26667 v -0.733336 z"
     style="color:#000000;display:inline;overflow:visible;visibility:visible;fill:#4d4d4d;fill-opacity:1;fill-rule:nonzero;stroke:url(#linearGradient1676);stroke-width:0.999999;stroke-miterlimit:4;stroke-dasharray:none;stroke-opacity:1;marker:none;enable-background:accumulate" />
</svg>
