<?xml version="1.0" encoding="UTF-8" standalone="no"?>
<svg
   xmlns:osb="http://www.openswatchbook.org/uri/2009/osb"
   xmlns:dc="http://purl.org/dc/elements/1.1/"
   xmlns:cc="http://creativecommons.org/ns#"
   xmlns:rdf="http://www.w3.org/1999/02/22-rdf-syntax-ns#"
   xmlns:svg="http://www.w3.org/2000/svg"
   xmlns="http://www.w3.org/2000/svg"
   xmlns:xlink="http://www.w3.org/1999/xlink"
   xmlns:sodipodi="http://sodipodi.sourceforge.net/DTD/sodipodi-0.dtd"
   xmlns:inkscape="http://www.inkscape.org/namespaces/inkscape"
   id="svg2453"
   height="64"
   width="64"
   version="1.0"
   inkscape:version="0.91 r13725"
   sodipodi:docname="com.github.philip-scott.spice-up.svg">
  <sodipodi:namedview
     pagecolor="#ffffff"
     bordercolor="#666666"
     borderopacity="1"
     objecttolerance="10"
     gridtolerance="10"
     guidetolerance="10"
     inkscape:pageopacity="0"
     inkscape:pageshadow="2"
     inkscape:window-width="1920"
     inkscape:window-height="1017"
     id="namedview59"
     showgrid="false"
     inkscape:zoom="8.0000002"
     inkscape:cx="26.759516"
     inkscape:cy="45.397791"
     inkscape:window-x="0"
     inkscape:window-y="30"
     inkscape:window-maximized="1"
     inkscape:current-layer="svg2453"
     units="px"
     fit-margin-top="0"
     fit-margin-left="0"
     fit-margin-right="0"
     fit-margin-bottom="0">
    <inkscape:grid
       type="xygrid"
       id="grid4314"
       originx="0"
       originy="0"
       units="px" />
  </sodipodi:namedview>
  <metadata
     id="metadata35">
    <rdf:RDF>
      <cc:Work
         rdf:about="">
        <dc:format>image/svg+xml</dc:format>
        <dc:type
           rdf:resource="http://purl.org/dc/dcmitype/StillImage" />
        <dc:title></dc:title>
      </cc:Work>
    </rdf:RDF>
  </metadata>
  <defs
     id="defs2455">
    <linearGradient
       inkscape:collect="always"
       id="linearGradient6532">
      <stop
         style="stop-color:#548ade;stop-opacity:1"
         offset="0"
         id="stop6534" />
      <stop
         id="stop6540"
         offset="0.27218115"
         style="stop-color:#589cff;stop-opacity:1" />
      <stop
         style="stop-color:#2878f0;stop-opacity:1"
         offset="1"
         id="stop6536" />
    </linearGradient>
    <linearGradient
       inkscape:collect="always"
       id="linearGradient6490"
       osb:paint="gradient">
      <stop
         style="stop-color:#000000;stop-opacity:1;"
         offset="0"
         id="stop6492" />
      <stop
         style="stop-color:#000000;stop-opacity:0;"
         offset="1"
         id="stop6494" />
    </linearGradient>
    <linearGradient
       id="linearGradient5641"
       osb:paint="solid">
      <stop
         style="stop-color:#000000;stop-opacity:1;"
         offset="0"
         id="stop5643" />
    </linearGradient>
    <linearGradient
       id="linearGradient3707-319-631-407-324-616-674-812-821-107-178-392-400-6-3-549-901-1-9-100-4-2">
      <stop
         offset="0"
         style="stop-color:#000000;stop-opacity:1"
         id="stop17839-7-3" />
      <stop
         offset="1"
         style="stop-color:#161616;stop-opacity:1"
         id="stop17841-4-8" />
    </linearGradient>
    <radialGradient
       r="2.5"
       gradientTransform="matrix(2.0038,0,0,1.4,27.988,-17.4)"
       cx="4.993"
       cy="43.5"
       gradientUnits="userSpaceOnUse"
       id="c">
      <stop
         id="stop4912"
         offset="0"
         stop-color="#181818" />
      <stop
         id="stop4914"
         offset="1"
         stop-opacity="0"
         stop-color="#181818" />
    </radialGradient>
    <radialGradient
       r="2.5"
       gradientTransform="matrix(2.0038,0,0,1.4,-20.012,-104.4)"
       cx="4.993"
       cy="43.5"
       gradientUnits="userSpaceOnUse"
       id="b">
      <stop
         id="stop4917"
         offset="0"
         stop-color="#181818" />
      <stop
         id="stop4919"
         offset="1"
         stop-opacity="0"
         stop-color="#181818" />
    </radialGradient>
    <linearGradient
       x1="25.058"
       y1="47.028"
       x2="25.058"
       gradientUnits="userSpaceOnUse"
       y2="39.999"
       id="f">
      <stop
         id="stop4922"
         offset="0"
         stop-opacity="0"
         stop-color="#181818" />
      <stop
         id="stop4924"
         offset=".5"
         stop-color="#181818" />
      <stop
         id="stop4926"
         offset="1"
         stop-opacity="0"
         stop-color="#181818" />
    </linearGradient>
    <linearGradient
       inkscape:collect="always"
       xlink:href="#linearGradient3707-319-631-407-324-616-674-812-821-107-178-392-400-6-3-549-901-1-9-100-4-2"
       id="linearGradient6504"
       x1="2.251761"
       y1="14.272394"
       x2="62.399254"
       y2="14.272394"
       gradientUnits="userSpaceOnUse"
       gradientTransform="translate(-0.234375,-0.078125)" />
    <linearGradient
       inkscape:collect="always"
       xlink:href="#linearGradient6532"
       id="linearGradient6538"
       x1="32.275337"
       y1="19.415205"
       x2="32.275337"
       y2="51.415203"
       gradientUnits="userSpaceOnUse"
       gradientTransform="translate(-0.234375,-0.078125)" />
  </defs>
  <g
     transform="matrix(1.5795519,0,0,0.55556,-6.1663301,34.40175)"
     id="g4933">
    <g
       style="opacity:0.4"
       transform="matrix(1.0526,0,0,1.2857,-1.2632,-13.429)"
       id="g4935">
      <rect
         style="fill:url(#c)"
         height="7"
         width="5"
         y="40"
         x="38"
         id="rect4937" />
      <rect
         style="fill:url(#b)"
         transform="scale(-1,-1)"
         height="7"
         width="5"
         y="-47"
         x="-10"
         id="rect4939" />
      <rect
         style="fill:url(#f)"
         height="7"
         width="28"
         y="40"
         x="10"
         id="rect4941" />
    </g>
  </g>
  <path
     id="rect5505-21-3-8-5-2"
     d="m 60.134019,58.053478 c 1.129266,0 2.038387,-0.896963 2.038387,-2.010996 l 0,-37.706593 -60.132434,0 0,37.706593 c 0,1.114033 0.909121,2.010996 2.038387,2.010996 z"
     style="color:#000000;display:inline;overflow:visible;visibility:visible;opacity:0.95999995;fill:url(#linearGradient6538);fill-opacity:1;fill-rule:nonzero;stroke:none;stroke-width:0.99999994;marker:none;enable-background:accumulate"
     inkscape:connector-curvature="0" />
  <path
     style="opacity:1;fill:none;stroke:#80b3ff;stroke-width:0.889;stroke-linecap:round;stroke-linejoin:round;stroke-miterlimit:4;stroke-dasharray:none"
     d="m 3.5011221,17.812569 57.2970339,0 -0.02248,-0.0161 -0.07812,37.533508 c -0.0024,1.17712 -0.324905,1.218523 -1.977118,1.218523 l -53.0322525,0 c -2.1521146,0 -2.164056,-0.222797 -2.1645812,-1.459034 L 3.5079864,18.325594 Z"
     id="rect4945"
     inkscape:connector-curvature="0"
     sodipodi:nodetypes="cccsssscc" />
  <path
     id="rect5505-21-3-8-9-1-1"
     d="m 59.650963,58.017048 c 2.032553,0 2.50498,-0.777105 2.50498,-2.482366 l 0,-37.23469 -1.001992,0 0,37.23469 c 0,0.833712 -0.661668,1.489459 -1.502988,1.489459 l -55.109565,0 c -0.841312,0 -1.502988,-0.655747 -1.502988,-1.489459 l 0,-37.23469 -1.001992,0 0,37.23469 c 0,1.366612 0.582436,2.551684 1.961527,2.549996 z"
     style="color:#000000;font-style:normal;font-variant:normal;font-weight:normal;font-stretch:normal;font-size:medium;line-height:normal;font-family:sans-serif;text-indent:0;text-align:start;text-decoration:none;text-decoration-line:none;text-decoration-style:solid;text-decoration-color:#000000;letter-spacing:normal;word-spacing:normal;text-transform:none;direction:ltr;block-progression:tb;writing-mode:lr-tb;baseline-shift:baseline;text-anchor:start;white-space:normal;clip-rule:nonzero;display:inline;overflow:visible;visibility:visible;opacity:0.7;isolation:auto;mix-blend-mode:normal;color-interpolation:sRGB;color-interpolation-filters:linearRGB;solid-color:#000000;solid-opacity:1;fill:#00317d;fill-opacity:1;fill-rule:nonzero;stroke:none;stroke-width:58.29999924;stroke-linecap:round;stroke-linejoin:round;stroke-miterlimit:4;stroke-dasharray:none;stroke-dashoffset:0;stroke-opacity:1;marker:none;color-rendering:auto;image-rendering:auto;shape-rendering:auto;text-rendering:auto;enable-background:accumulate"
     inkscape:connector-curvature="0"
     sodipodi:nodetypes="ssccssssccsss" />
  <path
     id="path4473"
     d="m 61.666984,17.827818 0,-5.329199 c 0,-1.073592 -0.894291,-1.937899 -2.00514,-1.937899 l -55.1414229,0 c -1.1108492,0 -2.0051423,0.864307 -2.0051423,1.937899 l 0,5.329199 z"
     style="color:#000000;display:inline;overflow:visible;visibility:visible;opacity:0.9;fill:#4d4d4d;fill-opacity:1;fill-rule:nonzero;stroke:url(#linearGradient6504);stroke-width:0.99578577;stroke-miterlimit:4;stroke-dasharray:none;stroke-opacity:1;marker:none;enable-background:accumulate"
     inkscape:connector-curvature="0" />
  <path
     d="m 25.196422,32.796678 c -0.01107,0 -0.226145,0.03 -0.237077,0.031 -0.01093,0 -0.196744,0.047 -0.207443,0.049 -0.0107,0 -0.197068,0.046 -0.207443,0.049 -0.0104,0 -0.19748,0.065 -0.207442,0.069 -0.01,0 -0.19798,0.084 -0.207444,0.088 -0.0095,0 -0.168924,0.082 -0.177808,0.087 -0.0089,0 -0.16958,0.1008 -0.177808,0.1061 -0.0083,0.01 -0.140671,0.099 -0.148174,0.1047 -0.0075,0.01 -0.14146,0.1179 -0.148173,0.124 -0.0067,0.01 -0.142308,0.1371 -0.148173,0.1435 -0.0059,0.01 -0.08393,0.1144 -0.0889,0.1211 -0.0049,0.01 -0.08488,0.1335 -0.0889,0.1405 -0.004,0.01 -0.08585,0.1334 -0.0889,0.1405 -0.0031,0.01 -0.0572,0.1512 -0.05927,0.1585 -0.0021,0.01 -0.02861,0.1302 -0.02963,0.1375 -0.001,0.01 8e-6,0.1482 0,0.1555 l 0,11.8141 c 6e-5,0.01 -5.6e-4,0.1116 0,0.1166 5.6e-4,0 0.02858,0.091 0.02963,0.096 0.001,0 0.02808,0.091 0.02963,0.096 0.0014,0 0.0276,0.091 0.02963,0.096 0.0021,0 0.02712,0.091 0.02963,0.096 0.0026,0 0.05628,0.09 0.05927,0.094 0.003,0 0.05583,0.09 0.05927,0.094 0.0035,0 0.08502,0.088 0.0889,0.093 0.0039,0 0.0846,0.069 0.0889,0.073 0.0043,0 0.0842,0.089 0.0889,0.093 0.0047,0 0.08381,0.07 0.0889,0.073 0.0051,0 0.113069,0.068 0.118538,0.072 0.0054,0 0.112726,0.049 0.118539,0.052 0.0058,0 0.112407,0.069 0.11854,0.072 0.0062,0 0.11211,0.05 0.118539,0.052 0.0064,0 0.14148,0.048 0.148172,0.051 0.0067,0 0.111607,0.031 0.11854,0.033 0.0069,0 0.14103,0.03 0.148172,0.031 0.0071,0 0.140851,0.03 0.148175,0.031 0.0074,0 0.140701,0.03 0.148173,0.031 0.0075,0.001 0.140583,0.011 0.148173,0.012 0.0076,6e-4 0.170129,0.01 0.177809,0.01 0.0077,4e-4 0.14044,0.012 0.148172,0.012 0.0078,0 0.140418,-0.01 0.148175,-0.01 0.0078,-4e-4 0.140426,-0.01 0.148173,-0.01 0.0078,-7e-4 0.170103,-0.027 0.177808,-0.028 0.0077,-0.001 0.140543,-0.01 0.148173,-0.01 0.0076,0 0.140649,-0.045 0.148175,-0.046 0.0075,0 0.140785,-0.025 0.148173,-0.027 0.0074,0 0.140953,-0.044 0.148173,-0.046 0.0073,0 0.141151,-0.044 0.148173,-0.046 0.007,0 0.14138,-0.044 0.148174,-0.046 l 16.121275,-6.722 a 0.67984515,1.0414703 84.949399 0 0 0,-0.02 c 0.0068,0 0.141591,-0.043 0.148174,-0.046 0.0065,0 0.112257,-0.08 0.118539,-0.084 0.0063,0 0.142219,-0.062 0.148173,-0.066 0.006,0 0.112937,-0.08 0.118539,-0.084 0.0055,0 0.08367,-0.078 0.0889,-0.082 0.0052,0 0.113714,-0.079 0.118537,-0.084 0.0048,0 0.08451,-0.078 0.0889,-0.082 0.0044,0 0.08494,-0.097 0.0889,-0.1016 0.004,0 0.05576,-0.076 0.05928,-0.081 0.0035,0 0.08587,-0.097 0.0889,-0.1016 0.0031,0 0.02708,-0.094 0.02963,-0.099 0.0026,0 0.05721,-0.1145 0.05928,-0.1196 0.0021,0 0.02809,-0.093 0.02963,-0.099 0.0014,-0.01 0.02861,-0.093 0.02963,-0.099 0.001,-0.01 0.02912,-0.1129 0.02963,-0.1181 5.19e-4,-0.01 0,-0.092 0,-0.097 0,-0.01 5.19e-4,-0.092 0,-0.097 -5.19e-4,-0.01 -0.02861,-0.11 -0.02963,-0.1151 -10e-4,0 -0.02809,-0.091 -0.02963,-0.096 -0.0014,0 -0.02759,-0.091 -0.02963,-0.096 -0.0021,0 -0.05672,-0.1088 -0.05928,-0.1136 -0.0026,0 -0.0266,-0.091 -0.02963,-0.096 -0.0031,0 -0.0854,-0.088 -0.0889,-0.093 -0.0035,0 -0.0553,-0.071 -0.05928,-0.075 -0.004,0 -0.08451,-0.088 -0.0889,-0.093 -0.0044,0 -0.08407,-0.069 -0.0889,-0.073 -0.0048,0 -0.113313,-0.068 -0.118537,-0.072 -0.0052,0 -0.0833,-0.07 -0.0889,-0.073 -0.0055,0 -0.112585,-0.069 -0.118539,-0.072 -0.006,0 -0.141891,-0.048 -0.148173,-0.051 -0.0063,0 -0.111956,-0.069 -0.118539,-0.072 -0.0065,0 -0.141318,-0.029 -0.148174,-0.031 a 0.67984515,1.0414703 84.949399 0 0 0,-0.019 l -16.121275,-5.0922 0,0.019 c -0.0078,0 -0.140104,-0.049 -0.148174,-0.051 -0.0081,0 -0.169478,-0.048 -0.177808,-0.049 -0.0083,0 -0.169263,-0.029 -0.177807,-0.03 -0.0085,0 -0.139461,-0.011 -0.148174,-0.012 -0.0087,-8e-4 -0.168975,-0.01 -0.177808,-0.011 -0.0088,-4e-4 -0.19854,-0.01 -0.207443,-0.01 -0.0089,0 -0.168883,0.01 -0.177808,0.01 -0.0089,5e-4 -0.168911,0.01 -0.177809,0.01 z"
     id="path4082"
     style="opacity:0.07000002;fill:#000000;fill-opacity:1;fill-rule:evenodd;stroke:none"
     inkscape:connector-curvature="0" />
  <path
     d="m 25.750704,30.214978 a 1.4501399,1.0548968 1.1080828 0 0 -1.320375,1.038 l 0,13.5834 a 1.4501399,1.0548968 1.1080828 0 0 2.149448,0.9356 l 16.704278,-6.6396 a 1.4501399,1.0548968 1.1080828 0 0 0,-1.832 l -16.704278,-6.9438 a 1.4501399,1.0548968 1.1080828 0 0 -0.829073,-0.1416 z"
     id="path4044-8"
     style="opacity:0.15;fill:#000000;fill-opacity:1;fill-rule:evenodd;stroke:none"
     inkscape:connector-curvature="0" />
  <path
     d="m 26.800139,29.314178 a 1.3327096,0.99403483 0 0 0 -1.213559,0.9893 l 0,12.7986 a 1.3327096,0.99403483 0 0 0 1.975562,0.8631 l 15.352939,-6.3993 a 1.3327096,0.99403483 0 0 0 0,-1.7261 l -15.352939,-6.3993 a 1.3327096,0.99403483 0 0 0 -0.762003,-0.1263 z"
     id="path4044"
     style="fill:#fafafa;fill-opacity:1;fill-rule:evenodd;stroke:none"
     inkscape:connector-curvature="0" />
  <g
     transform="translate(166.3815,-974.97037)"
     id="layer1"
     inkscape:label="Layer 1" />
</svg>
