<?xml version="1.0" encoding="UTF-8" standalone="no"?>
<svg
   xmlns:osb="http://www.openswatchbook.org/uri/2009/osb"
   xmlns:dc="http://purl.org/dc/elements/1.1/"
   xmlns:cc="http://creativecommons.org/ns#"
   xmlns:rdf="http://www.w3.org/1999/02/22-rdf-syntax-ns#"
   xmlns:svg="http://www.w3.org/2000/svg"
   xmlns="http://www.w3.org/2000/svg"
   xmlns:xlink="http://www.w3.org/1999/xlink"
   xmlns:sodipodi="http://sodipodi.sourceforge.net/DTD/sodipodi-0.dtd"
   xmlns:inkscape="http://www.inkscape.org/namespaces/inkscape"
   id="svg2453"
   height="64"
   width="64"
   version="1.0"
   inkscape:version="0.91 r13725"
   sodipodi:docname="spice.svg">
  <sodipodi:namedview
     pagecolor="#ffffff"
     bordercolor="#666666"
     borderopacity="1"
     objecttolerance="10"
     gridtolerance="10"
     guidetolerance="10"
     inkscape:pageopacity="0"
     inkscape:pageshadow="2"
     inkscape:window-width="1920"
     inkscape:window-height="1024"
     id="namedview59"
     showgrid="false"
     inkscape:zoom="10.429825"
     inkscape:cx="42.633462"
     inkscape:cy="34.246772"
     inkscape:window-x="0"
     inkscape:window-y="31"
     inkscape:window-maximized="1"
     inkscape:current-layer="svg2453" />
  <metadata
     id="metadata35">
    <rdf:RDF>
      <cc:Work
         rdf:about="">
        <dc:format>image/svg+xml</dc:format>
        <dc:type
           rdf:resource="http://purl.org/dc/dcmitype/StillImage" />
        <dc:title />
      </cc:Work>
    </rdf:RDF>
  </metadata>
  <defs
     id="defs2455">
    <radialGradient
       gradientTransform="matrix(1.273594e-7,3.2957553,-5.3809239,0,77.467708,-19.382411)"
       gradientUnits="userSpaceOnUse"
       id="radialGradient5794"
       r="20"
       cy="8.4497995"
       cx="7.4956999">
      <stop
         offset="0"
         style="stop-color:#f8b17e;stop-opacity:1"
         id="stop5796" />
      <stop
         offset="0.17526902"
         style="stop-color:#e35d4f;stop-opacity:1"
         id="stop5798" />
      <stop
         offset="0.43288204"
         style="stop-color:#c6262e;stop-opacity:1"
         id="stop5800" />
      <stop
         offset="1"
         style="stop-color:#690b54;stop-opacity:1"
         id="stop5802" />
    </radialGradient>
    <linearGradient
       id="linearGradient5641"
       osb:paint="solid">
      <stop
         style="stop-color:#000000;stop-opacity:1;"
         offset="0"
         id="stop5643" />
    </linearGradient>
    <radialGradient
       cx="7.4956999"
       cy="8.4497995"
       r="20"
       id="radialGradient3164-3"
       gradientUnits="userSpaceOnUse"
       gradientTransform="matrix(1.273594e-7,3.2957553,-5.3809239,0,77.467708,-19.382411)">
      <stop
         id="stop4189"
         style="stop-color:#f8b17e;stop-opacity:1"
         offset="0" />
      <stop
         id="stop4191"
         style="stop-color:#e35d4f;stop-opacity:1"
         offset="0.26238" />
      <stop
         id="stop4193"
         style="stop-color:#c6262e;stop-opacity:1"
         offset="0.66093999" />
      <stop
         id="stop4195"
         style="stop-color:#690b54;stop-opacity:1"
         offset="1" />
    </radialGradient>
    <linearGradient
       id="linearGradient5060-2">
      <stop
         offset="0"
         style="stop-color:#000000;stop-opacity:1"
         id="stop5062-3" />
      <stop
         offset="1"
         style="stop-color:#000000;stop-opacity:0"
         id="stop5064-1" />
    </linearGradient>
    <linearGradient
       id="linearGradient5048-8">
      <stop
         offset="0"
         style="stop-color:#000000;stop-opacity:0"
         id="stop5050-4" />
      <stop
         offset="0.5"
         style="stop-color:#000000;stop-opacity:1"
         id="stop5056-5" />
      <stop
         offset="1"
         style="stop-color:#000000;stop-opacity:0"
         id="stop5052-1" />
    </linearGradient>
    <radialGradient
       gradientTransform="matrix(-0.03212956,0,0,-0.02058823,24.087881,67.133628)"
       gradientUnits="userSpaceOnUse"
       xlink:href="#linearGradient5060-2"
       id="radialGradient3172"
       fy="486.64789"
       fx="605.71429"
       r="117.14286"
       cy="486.64789"
       cx="605.71429" />
    <radialGradient
       gradientTransform="matrix(0.03212956,0,0,-0.02058823,40.361448,67.133628)"
       gradientUnits="userSpaceOnUse"
       xlink:href="#linearGradient5060-2"
       id="radialGradient3175"
       fy="486.64789"
       fx="605.71429"
       r="117.14286"
       cy="486.64789"
       cx="605.71429" />
    <linearGradient
       gradientTransform="matrix(0.11390532,0,0,0.02058823,-73.393305,-67.062377)"
       gradientUnits="userSpaceOnUse"
       xlink:href="#linearGradient5048-8"
       id="linearGradient3178"
       y2="609.50507"
       x2="302.85715"
       y1="366.64789"
       x1="302.85715" />
    <radialGradient
       r="12.671875"
       fy="9.9571075"
       fx="7.1183534"
       cy="9.9571075"
       cx="7.1183534"
       gradientTransform="matrix(0,11.015167,-16.975815,0,202.28727,-88.992668)"
       gradientUnits="userSpaceOnUse"
       id="radialGradient3136"
       xlink:href="#radialGradient3164-3" />
    <linearGradient
       gradientTransform="matrix(2.641026,0,0,2.641026,0.6153903,-60.384616)"
       gradientUnits="userSpaceOnUse"
       id="linearGradient3173"
       y2="3.8989999"
       x2="24"
       y1="44"
       x1="24">
      <stop
         offset="0"
         style="stop-color:#791235;stop-opacity:1"
         id="stop2492" />
      <stop
         offset="1"
         style="stop-color:#bf1d09;stop-opacity:1"
         id="stop2494" />
    </linearGradient>
    <radialGradient
       gradientTransform="matrix(1.273594e-7,3.2957553,-5.3809239,0,77.467708,-19.382411)"
       gradientUnits="userSpaceOnUse"
       id="radialGradient3164"
       r="20"
       cy="8.4497995"
       cx="7.4956999">
      <stop
         offset="0"
         style="stop-color:#f8b17e;stop-opacity:1"
         id="stop3244" />
      <stop
         offset="0.26238"
         style="stop-color:#e35d4f;stop-opacity:1"
         id="stop3246" />
      <stop
         offset="0.66093999"
         style="stop-color:#c6262e;stop-opacity:1"
         id="stop3248" />
      <stop
         offset="1"
         style="stop-color:#690b54;stop-opacity:1"
         id="stop3250" />
    </radialGradient>
    <linearGradient
       gradientUnits="userSpaceOnUse"
       y2="49"
       x2="36"
       y1="59"
       x1="36"
       id="linearGradient4489"
       xlink:href="#linearGradient4215-8-4-07-7"
       gradientTransform="matrix(-1,0,0,-1,64.224665,68.263009)" />
    <linearGradient
       xlink:href="#linearGradient4011-9-9-70-61-7"
       id="linearGradient14699"
       gradientUnits="userSpaceOnUse"
       gradientTransform="matrix(-0.05405404,0,0,0.05405404,22.44,53.223089)"
       x1="71.204407"
       y1="6.2375584"
       x2="71.204407"
       y2="44.340794" />
    <linearGradient
       id="linearGradient4011-9-9-70-61-7">
      <stop
         id="stop4013-5-4-3-8-3"
         style="stop-color:#ffffff;stop-opacity:1;"
         offset="0" />
      <stop
         offset="0.507761"
         style="stop-color:#ffffff;stop-opacity:0.23529412;"
         id="stop4015-1-5-70-9-5" />
      <stop
         id="stop4017-7-0-13-0-1"
         style="stop-color:#ffffff;stop-opacity:0.15686275;"
         offset="0.83456558" />
      <stop
         id="stop4019-1-12-7-0-7"
         style="stop-color:#ffffff;stop-opacity:0.39215687;"
         offset="1" />
    </linearGradient>
    <linearGradient
       xlink:href="#linearGradient4215-8-4-07-7"
       id="linearGradient14702"
       gradientUnits="userSpaceOnUse"
       gradientTransform="matrix(-0.07843137,0,0,0.07843137,21.009804,51.833334)"
       x1="38.976662"
       y1="59.967686"
       x2="38.976662"
       y2="8.0928917" />
    <linearGradient
       id="linearGradient4215-8-4-07-7">
      <stop
         style="stop-color:#2b3235;stop-opacity:1"
         offset="0"
         id="stop4217-1-2-1-2" />
      <stop
         style="stop-color:#374044;stop-opacity:1"
         offset="1"
         id="stop4219-3-4-0-96" />
    </linearGradient>
    <linearGradient
       gradientUnits="userSpaceOnUse"
       y2="49.966103"
       x2="30.40678"
       y1="7.237288"
       x1="29.728813"
       id="linearGradient10973"
       xlink:href="#linearGradient3173"
       gradientTransform="translate(0.38351507,0.19175773)" />
    <linearGradient
       y2="42.437775"
       x2="40.290417"
       y1="5.4143372"
       x1="40.290417"
       gradientTransform="matrix(1.5405405,0,0,1.2162162,-8.2328572,0.70460538)"
       gradientUnits="userSpaceOnUse"
       id="linearGradient3133-5"
       xlink:href="#linearGradient3462-4" />
    <linearGradient
       id="linearGradient3462-4">
      <stop
         offset="0"
         style="stop-color:#ffffff;stop-opacity:1"
         id="stop3464-8" />
      <stop
         offset="0.03457849"
         style="stop-color:#ffffff;stop-opacity:0.23529412"
         id="stop3466-4" />
      <stop
         offset="0.96375686"
         style="stop-color:#ffffff;stop-opacity:0.15686275"
         id="stop3468-5" />
      <stop
         offset="1"
         style="stop-color:#ffffff;stop-opacity:0.39215687"
         id="stop3470-2" />
    </linearGradient>
    <filter
       style="color-interpolation-filters:sRGB;"
       inkscape:label="Color Shift"
       id="filter5773">
      <feColorMatrix
         type="hueRotate"
         values="214"
         result="color1"
         id="feColorMatrix5775" />
      <feColorMatrix
         type="saturate"
         values="1"
         result="color2"
         id="feColorMatrix5777" />
    </filter>
    <filter
       style="color-interpolation-filters:sRGB;"
       inkscape:label="Color Shift"
       id="filter5785">
      <feColorMatrix
         type="hueRotate"
         values="214"
         result="color1"
         id="feColorMatrix5787" />
      <feColorMatrix
         type="saturate"
         values="1"
         result="color2"
         id="feColorMatrix5789" />
    </filter>
  </defs>
  <rect
     style="display:inline;overflow:visible;visibility:visible;opacity:0.3;fill:url(#linearGradient3178);fill-opacity:1;fill-rule:nonzero;stroke:none;stroke-width:1;marker:none;"
     id="rect2879-0"
     y="-59.51379"
     x="-59.724663"
     height="5"
     width="55"
     transform="scale(-1,-1)" />
  <path
     style="display:inline;overflow:visible;visibility:visible;opacity:0.3;fill:url(#radialGradient3175);fill-opacity:1;fill-rule:nonzero;stroke:none;stroke-width:1;marker:none;"
     id="path2881-4"
     d="m 59.724665,59.584828 c 0,0 0,-4.9997 0,-4.9997 1.654593,-0.01 4,1.1202 4,2.5002 0,1.38 -1.846401,2.4995 -4,2.4995 z"
     inkscape:connector-curvature="0" />
  <path
     style="display:inline;overflow:visible;visibility:visible;opacity:0.3;fill:url(#radialGradient3172);fill-opacity:1;fill-rule:nonzero;stroke:none;stroke-width:1;marker:none;"
     id="path2883-6"
     d="m 4.7246641,59.584828 c 0,0 0,-4.9997 0,-4.9997 -1.654592,-0.01 -4.00000008,1.1202 -4.00000008,2.5002 0,1.38 1.84640108,2.4995 4.00000008,2.4995 z"
     inkscape:connector-curvature="0" />
  <path
     id="path4473"
     d="m 61.724665,17.263009 0,-5.5 c 0,-1.108 -0.892,-2.0000001 -2,-2.0000001 l -55.0000009,0 c -1.108,0 -2,0.8920001 -2,2.0000001 l 0,5.5 z"
     style="color:#000000;display:inline;overflow:visible;visibility:visible;opacity:0.9;fill:url(#linearGradient4489);fill-opacity:1;fill-rule:nonzero;stroke:none;stroke-width:0.99999994;marker:none;enable-background:accumulate;"
     inkscape:connector-curvature="0" />
  <path
     id="rect5505-21-3-8-5-2"
     d="m 4.5,11.5 c -1.108,0 -2,0.892 -2,2 l 0,37.5 59,0 0,-37.5 c 0,-1.108 -0.892,-2 -2,-2 z"
     style="color:#000000;display:inline;overflow:visible;visibility:visible;opacity:0.96;fill:#3771c8;fill-opacity:1;fill-rule:nonzero;stroke:none;stroke-width:0.99999994;marker:none;enable-background:accumulate"
     inkscape:connector-curvature="0"
     transform="matrix(-1,0,0,-1,64.224665,68.263009)" />
  <path
     id="rect5505-21-3-8-9-1-1"
     d="m 4.8835151,11.191758 c -1.376351,0 -2.5,1.123649 -2.5,2.5 l 0,37.5 1,0 0,-37.5 c 0,-0.839649 0.660352,-1.5 1.5,-1.5 l 55.0000049,0 c 0.83964,0 1.5,0.660351 1.5,1.5 l 0,37.5 1,0 0,-37.5 c 0,-1.376351 -1.12365,-2.5 -2.5,-2.5 l -55.0000049,0 z"
     style="color:#000000;font-style:normal;font-variant:normal;font-weight:normal;font-stretch:normal;font-size:medium;line-height:normal;font-family:sans-serif;text-indent:0;text-align:start;text-decoration:none;text-decoration-line:none;text-decoration-style:solid;text-decoration-color:#000000;letter-spacing:normal;word-spacing:normal;text-transform:none;direction:ltr;block-progression:tb;writing-mode:lr-tb;baseline-shift:baseline;text-anchor:start;white-space:normal;clip-rule:nonzero;display:inline;overflow:visible;visibility:visible;opacity:0.7;isolation:auto;mix-blend-mode:normal;color-interpolation:sRGB;color-interpolation-filters:linearRGB;solid-color:#000000;solid-opacity:1;fill:#162d50;fill-opacity:1;fill-rule:nonzero;stroke:none;stroke-width:1;stroke-linecap:round;stroke-linejoin:round;stroke-miterlimit:4;stroke-dasharray:none;stroke-dashoffset:0;stroke-opacity:1;marker:none;color-rendering:auto;image-rendering:auto;shape-rendering:auto;text-rendering:auto;enable-background:accumulate"
     inkscape:connector-curvature="0"
     transform="matrix(-1,0,0,-1,64.608181,68.358888)" />
  <path
     d="m 26.001522,25.837173 c -0.01054,9.11e-4 -0.215367,0.02656 -0.225778,0.02849 -0.01041,0.0019 -0.187368,0.05408 -0.197557,0.05698 -0.01019,0.0029 -0.187676,0.05314 -0.197556,0.05698 -0.0099,0.0038 -0.188069,0.08073 -0.197556,0.08547 -0.0095,0.0047 -0.188544,0.108353 -0.197556,0.113959 -0.009,0.0056 -0.160874,0.107538 -0.169334,0.11396 -0.0085,0.0064 -0.161498,0.135265 -0.169334,0.142449 -0.0079,0.0072 -0.133966,0.134566 -0.141112,0.14245 -0.0071,0.0078 -0.134718,0.162422 -0.141111,0.170939 -0.0064,0.0085 -0.135526,0.190353 -0.141112,0.199429 -0.0056,0.0091 -0.07993,0.161381 -0.08467,0.17094 -0.0047,0.0096 -0.08083,0.18947 -0.08467,0.199429 -0.0038,0.01 -0.08176,0.189155 -0.08467,0.199429 -0.0029,0.01028 -0.05448,0.217417 -0.05644,0.22792 -0.002,0.0105 -0.02724,0.18879 -0.02822,0.199429 -9.93e-4,0.01064 8e-6,0.217233 0,0.227919 l 0,17.321857 c 5.7e-5,0.0075 -5.33e-4,0.163501 0,0.170939 5.34e-4,0.0075 0.02721,0.135062 0.02822,0.142449 9.93e-4,0.0074 0.02674,0.135144 0.02822,0.14245 0.0014,0.0073 0.02628,0.135254 0.02822,0.142449 0.002,0.0072 0.02582,0.135396 0.02822,0.14245 0.0024,0.007 0.0536,0.135567 0.05644,0.142449 0.0028,0.0068 0.05317,0.135767 0.05644,0.14245 0.0033,0.0067 0.08097,0.135994 0.08467,0.142449 0.0037,0.0065 0.08057,0.107759 0.08467,0.11396 0.0041,0.0062 0.08018,0.136529 0.08467,0.142449 0.0045,0.0059 0.07981,0.108344 0.08467,0.11396 0.0049,0.0057 0.10768,0.108672 0.112889,0.113959 0.0052,0.0053 0.107353,0.08053 0.112889,0.08547 0.0055,0.0049 0.107049,0.109393 0.11289,0.11396 0.0059,0.0046 0.106768,0.08129 0.112889,0.08547 0.0061,0.0042 0.134737,0.0817 0.141111,0.08547 0.0064,0.0037 0.106288,0.05363 0.11289,0.05698 0.0066,0.0034 0.134309,0.05407 0.141111,0.05698 0.0068,0.0029 0.134138,0.05452 0.141112,0.05698 0.007,0.0025 0.133995,0.05498 0.141111,0.05698 0.0071,0.002 0.133883,0.02696 0.141112,0.02849 0.0072,0.0016 0.162021,0.02743 0.169334,0.02849 0.0073,0.0011 0.133747,0.02791 0.141111,0.02849 0.0074,5.8e-4 0.133725,-9.9e-5 0.141112,0 0.0074,9.8e-5 0.133734,3.83e-4 0.141112,0 0.0074,-3.83e-4 0.161996,-0.02762 0.169333,-0.02849 0.0073,-8.62e-4 0.133845,0.0014 0.141112,0 0.0072,-0.0014 0.133945,-0.05518 0.141112,-0.05698 0.0071,-0.0018 0.134075,-0.02622 0.141111,-0.02849 0.007,-0.0023 0.134235,-0.05425 0.141112,-0.05698 0.0069,-0.0027 0.134424,-0.05381 0.141111,-0.05698 0.0067,-0.0032 0.134641,-0.05338 0.141112,-0.05698 l 15.352939,-8.660928 a 0.98962591,0.99900872 0 0 0 0,-0.02849 c 0.0065,-0.0037 0.134842,-0.05279 0.141112,-0.05698 0.0062,-0.0042 0.106906,-0.109362 0.112889,-0.11396 0.006,-0.0046 0.135441,-0.08048 0.141112,-0.08547 0.0057,-0.005 0.107554,-0.108611 0.112889,-0.11396 0.0053,-0.0054 0.07969,-0.108268 0.08467,-0.113959 0.005,-0.0057 0.108295,-0.107951 0.112889,-0.11396 0.0046,-0.006 0.08048,-0.107659 0.08467,-0.11396 0.0042,-0.0063 0.08089,-0.135884 0.08467,-0.142449 0.0038,-0.0066 0.0531,-0.107159 0.05645,-0.11396 0.0033,-0.0068 0.08178,-0.135442 0.08467,-0.142449 0.0029,-0.007 0.02579,-0.135266 0.02822,-0.14245 0.0024,-0.0072 0.05449,-0.16361 0.05645,-0.170939 0.002,-0.0073 0.02675,-0.135007 0.02822,-0.142449 0.0014,-0.0075 0.02724,-0.134925 0.02822,-0.14245 9.94e-4,-0.0076 0.02773,-0.163365 0.02822,-0.170939 4.94e-4,-0.0076 0,-0.134859 0,-0.14245 0,-0.0076 4.94e-4,-0.134875 0,-0.142449 -4.94e-4,-0.0076 -0.02724,-0.163415 -0.02822,-0.17094 -9.85e-4,-0.0075 -0.02675,-0.135006 -0.02822,-0.142449 -0.0014,-0.0075 -0.02627,-0.135121 -0.02822,-0.14245 -0.002,-0.0073 -0.05402,-0.163755 -0.05645,-0.170939 -0.0024,-0.0072 -0.02533,-0.135442 -0.02822,-0.142449 -0.0029,-0.007 -0.08133,-0.135649 -0.08467,-0.14245 -0.0033,-0.0068 -0.05267,-0.107395 -0.05645,-0.113959 -0.0038,-0.0066 -0.08048,-0.136149 -0.08467,-0.14245 -0.0042,-0.0063 -0.08007,-0.107951 -0.08467,-0.11396 -0.0046,-0.006 -0.107914,-0.108268 -0.112889,-0.113959 -0.005,-0.0057 -0.07933,-0.108611 -0.08467,-0.11396 -0.0053,-0.0054 -0.107219,-0.108975 -0.112889,-0.113959 -0.0057,-0.005 -0.135129,-0.08087 -0.141112,-0.08547 -0.006,-0.0046 -0.10662,-0.109769 -0.112889,-0.11396 -0.0062,-0.0042 -0.134583,-0.05321 -0.141112,-0.05698 a 0.98962591,0.99900872 0 0 0 0,-0.02849 l -15.352939,-8.660929 0,0.02849 c -0.0074,-0.0042 -0.133427,-0.0818 -0.141112,-0.08547 -0.0077,-0.0036 -0.161401,-0.08239 -0.169334,-0.08547 -0.0079,-0.0031 -0.161196,-0.0545 -0.169333,-0.05698 -0.0081,-0.0025 -0.132814,-0.02663 -0.141112,-0.02849 -0.0083,-0.0018 -0.160922,-0.02726 -0.169334,-0.02849 -0.0084,-0.0013 -0.189077,-0.02789 -0.197556,-0.02849 -0.0085,-6.01e-4 -0.160834,-3.7e-5 -0.169334,0 -0.0085,3.6e-5 -0.16086,-6.73e-4 -0.169334,0 z"
     id="path4082"
     style="opacity:0.07000002;fill:#000000;fill-opacity:1;fill-rule:evenodd;stroke:none"
     inkscape:connector-curvature="0" />
  <path
     d="m 26.086189,26.834319 a 1.3327096,1.3453452 0 0 0 -1.21356,1.339025 l 0,17.321856 a 1.3327096,1.3453452 0 0 0 1.975563,1.168086 l 15.352939,-8.660928 a 1.3327096,1.3453452 0 0 0 0,-2.336172 L 26.848192,27.005258 a 1.3327096,1.3453452 0 0 0 -0.762003,-0.170939 z"
     id="path4044-8"
     style="opacity:0.15;fill:#000000;fill-opacity:1;fill-rule:evenodd;stroke:none"
     inkscape:connector-curvature="0" />
  <path
     d="m 26.086189,25.834319 a 1.3327096,1.3453452 0 0 0 -1.213559,1.339025 l 0,17.321856 a 1.3327096,1.3453452 0 0 0 1.975562,1.168086 l 15.352939,-8.660928 a 1.3327096,1.3453452 0 0 0 0,-2.336172 L 26.848192,26.005258 a 1.3327096,1.3453452 0 0 0 -0.762003,-0.170939 z"
     id="path4044"
     style="fill:#fafafa;fill-opacity:1;fill-rule:evenodd;stroke:none"
     inkscape:connector-curvature="0" />
  <path
     id="path10946"
     d="m 62.320545,17.358887 0,-5.5 c 0,-1.376351 -1.123649,-2.4999998 -2.5,-2.4999998 l -55.0000064,0 c -1.37635,0 -2.5,1.1236488 -2.5,2.4999998 l 0,5.5 1,0 0,-5.5 c 0,-0.839649 0.66036,-1.5 1.5,-1.5 l 55.0000064,0 c 0.839648,0 1.5,0.660351 1.5,1.5 l 0,5.5 z"
     style="color:#000000;font-style:normal;font-variant:normal;font-weight:normal;font-stretch:normal;font-size:medium;line-height:normal;font-family:sans-serif;text-indent:0;text-align:start;text-decoration:none;text-decoration-line:none;text-decoration-style:solid;text-decoration-color:#000000;letter-spacing:normal;word-spacing:normal;text-transform:none;direction:ltr;block-progression:tb;writing-mode:lr-tb;baseline-shift:baseline;text-anchor:start;white-space:normal;clip-rule:nonzero;display:inline;overflow:visible;visibility:visible;opacity:0.5;isolation:auto;mix-blend-mode:normal;color-interpolation:sRGB;color-interpolation-filters:linearRGB;solid-color:#000000;solid-opacity:1;fill:#000000;fill-opacity:1;fill-rule:nonzero;stroke:none;stroke-width:1;stroke-linecap:round;stroke-linejoin:round;stroke-miterlimit:4;stroke-dasharray:none;stroke-dashoffset:0;stroke-opacity:1;marker:none;color-rendering:auto;image-rendering:auto;shape-rendering:auto;text-rendering:auto;enable-background:accumulate;"
     inkscape:connector-curvature="0" />
  <path
     inkscape:connector-curvature="0"
     style="color:#000000;font-style:normal;font-variant:normal;font-weight:normal;font-stretch:normal;font-size:medium;line-height:normal;font-family:sans-serif;text-indent:0;text-align:start;text-decoration:none;text-decoration-line:none;text-decoration-style:solid;text-decoration-color:#000000;letter-spacing:normal;word-spacing:normal;text-transform:none;direction:ltr;block-progression:tb;writing-mode:lr-tb;baseline-shift:baseline;text-anchor:start;white-space:normal;clip-rule:nonzero;display:inline;overflow:visible;visibility:visible;opacity:0.5;isolation:auto;mix-blend-mode:normal;color-interpolation:sRGB;color-interpolation-filters:linearRGB;solid-color:#000000;solid-opacity:1;fill:#000000;fill-opacity:1;fill-rule:nonzero;stroke:none;stroke-width:1;stroke-linecap:round;stroke-linejoin:round;stroke-miterlimit:4;stroke-dasharray:none;stroke-dashoffset:0;stroke-opacity:1;marker:none;color-rendering:auto;image-rendering:auto;shape-rendering:auto;text-rendering:auto;enable-background:accumulate"
     d="m 61.881941,16.166288 -57.3490391,0 c -2.2998121,0.03173 -1.6500746,0.444381 -1.8216988,0.952061 l 57.1093419,-10e-7 c 3.611321,0.423454 1.274314,-1.167603 2.061396,-0.95206 z"
     id="path5814"
     sodipodi:nodetypes="ccccc" />
</svg>
