<?xml version="1.0" encoding="UTF-8" standalone="no"?>
<svg
   id="svg2453"
   height="32"
   width="32"
   version="1.0"
   xmlns:xlink="http://www.w3.org/1999/xlink"
   xmlns="http://www.w3.org/2000/svg"
   xmlns:svg="http://www.w3.org/2000/svg"
   xmlns:rdf="http://www.w3.org/1999/02/22-rdf-syntax-ns#"
   xmlns:cc="http://creativecommons.org/ns#"
   xmlns:dc="http://purl.org/dc/elements/1.1/">
  <metadata
     id="metadata35">
    <rdf:RDF>
      <cc:Work
         rdf:about="">
        <dc:format>image/svg+xml</dc:format>
        <dc:type
           rdf:resource="http://purl.org/dc/dcmitype/StillImage" />
      </cc:Work>
    </rdf:RDF>
  </metadata>
  <defs
     id="defs2455">
    <linearGradient
       id="linearGradient1649">
      <stop
         style="stop-color:#ffffff;stop-opacity:1;"
         offset="0"
         id="stop1641" />
      <stop
         id="stop1643"
         offset="0"
         style="stop-color:#ffffff;stop-opacity:0.23529412" />
      <stop
         style="stop-color:#ffffff;stop-opacity:0.15686275"
         offset="1"
         id="stop1645" />
      <stop
         style="stop-color:#ffffff;stop-opacity:0.39215687"
         offset="1"
         id="stop1647" />
    </linearGradient>
    <linearGradient
       id="linearGradient3707-319-631-407-324-616-674-812-821-107-178-392-400-6-3-549-901-1-9-100-4-2">
      <stop
         offset="0"
         style="stop-color:#000000;stop-opacity:1"
         id="stop17839-7-3" />
      <stop
         offset="1"
         style="stop-color:#161616;stop-opacity:1"
         id="stop17841-4-8" />
    </linearGradient>
    <radialGradient
       r="2.5"
       gradientTransform="matrix(2.0038,0,0,1.4,27.988,-17.4)"
       cx="4.993"
       cy="43.5"
       gradientUnits="userSpaceOnUse"
       id="c">
      <stop
         id="stop4912"
         offset="0"
         stop-color="#181818" />
      <stop
         id="stop4914"
         offset="1"
         stop-opacity="0"
         stop-color="#181818" />
    </radialGradient>
    <radialGradient
       r="2.5"
       gradientTransform="matrix(2.0038,0,0,1.4,-20.012,-104.4)"
       cx="4.993"
       cy="43.5"
       gradientUnits="userSpaceOnUse"
       id="b">
      <stop
         id="stop4917"
         offset="0"
         stop-color="#181818" />
      <stop
         id="stop4919"
         offset="1"
         stop-opacity="0"
         stop-color="#181818" />
    </radialGradient>
    <linearGradient
       x1="25.058001"
       y1="47.028"
       x2="25.058001"
       gradientUnits="userSpaceOnUse"
       y2="39.999001"
       id="f">
      <stop
         id="stop4922"
         offset="0"
         stop-opacity="0"
         stop-color="#181818" />
      <stop
         id="stop4924"
         offset=".5"
         stop-color="#181818" />
      <stop
         id="stop4926"
         offset="1"
         stop-opacity="0"
         stop-color="#181818" />
    </linearGradient>
    <linearGradient
       xlink:href="#linearGradient3707-319-631-407-324-616-674-812-821-107-178-392-400-6-3-549-901-1-9-100-4-2"
       id="linearGradient6504"
       x1="2.251761"
       y1="14.272394"
       x2="62.399254"
       y2="14.272394"
       gradientUnits="userSpaceOnUse"
       gradientTransform="matrix(0.49026482,0,0,0.41281944,0.15194134,-0.89192246)" />
    <radialGradient
       xlink:href="#c"
       id="radialGradient4213"
       gradientUnits="userSpaceOnUse"
       gradientTransform="matrix(2.0038,0,0,1.4,27.988,-17.4)"
       cx="4.993"
       cy="43.5"
       r="2.5" />
    <radialGradient
       xlink:href="#b"
       id="radialGradient4215"
       gradientUnits="userSpaceOnUse"
       gradientTransform="matrix(2.0038,0,0,1.4,-20.012,-104.4)"
       cx="4.993"
       cy="43.5"
       r="2.5" />
    <linearGradient
       xlink:href="#f"
       id="linearGradient4217"
       gradientUnits="userSpaceOnUse"
       x1="25.058001"
       y1="47.028"
       x2="25.058001"
       y2="39.999001" />
    <linearGradient
       xlink:href="#linearGradient3707-319-631-407-324-616-674-812-821-107-178-392-400-6-3-549-901-1-9-100-4-2"
       id="linearGradient4231"
       gradientUnits="userSpaceOnUse"
       gradientTransform="matrix(0.08507563,0,0,0.2768146,13.272474,-1.4429842)"
       x1="2.251761"
       y1="14.272394"
       x2="62.399254"
       y2="14.272394" />
    <linearGradient
       xlink:href="#linearGradient3707-319-631-407-324-616-674-812-821-107-178-392-400-6-3-549-901-1-9-100-4-2"
       id="linearGradient4255"
       gradientUnits="userSpaceOnUse"
       gradientTransform="matrix(0.49026483,0,0,-0.41281942,0.15194137,32.891921)"
       x1="2.251761"
       y1="14.272394"
       x2="62.399254"
       y2="14.272394" />
    <linearGradient
       id="linearGradient2143">
      <stop
         style="stop-color:#ffffff;stop-opacity:1;"
         offset="0"
         id="stop2135" />
      <stop
         id="stop2137"
         offset="0.05422588"
         style="stop-color:#ffffff;stop-opacity:0.23529412" />
      <stop
         style="stop-color:#ffffff;stop-opacity:0.15686275"
         offset="1"
         id="stop2139" />
      <stop
         style="stop-color:#ffffff;stop-opacity:0.39215687"
         offset="1"
         id="stop2141" />
    </linearGradient>
    <linearGradient
       id="linearGradient6532-5">
      <stop
         style="stop-color:#64baff;stop-opacity:1"
         offset="0"
         id="stop6534-6" />
      <stop
         style="stop-color:#0d52bf;stop-opacity:1"
         offset="1"
         id="stop6536-2" />
    </linearGradient>
    <linearGradient
       xlink:href="#linearGradient1649"
       id="linearGradient1601"
       x1="24.937273"
       y1="5.0580707"
       x2="24.937273"
       y2="26.900633"
       gradientUnits="userSpaceOnUse"
       gradientTransform="matrix(0.9897538,0,0,0.99551465,0.17990625,-0.0057173)" />
    <linearGradient
       xlink:href="#linearGradient2143"
       id="linearGradient2875"
       x1="21"
       y1="5"
       x2="21"
       y2="24"
       gradientUnits="userSpaceOnUse" />
    <linearGradient
       xlink:href="#linearGradient6532-5"
       id="linearGradient3189"
       gradientUnits="userSpaceOnUse"
       gradientTransform="matrix(0.4210671,0,0,0.47827066,2.4810049,-2.331549)"
       x1="32.10651"
       y1="1.6582414"
       x2="32.10651"
       y2="60.738617" />
    <linearGradient
       xlink:href="#linearGradient1649"
       id="linearGradient1216"
       gradientUnits="userSpaceOnUse"
       gradientTransform="matrix(0.9897538,0,0,0.99551432,0.17990597,21.994284)"
       x1="24.937273"
       y1="5.0580707"
       x2="24.937273"
       y2="26.900633" />
  </defs>
  <path
     id="rect5505-21-3-8-5-2-6-8-2"
     d="M 28.5,25.5 V 6.5 H 3.4999998 v 19 z"
     style="color:#000000;display:inline;overflow:visible;visibility:visible;fill:url(#linearGradient3189);fill-opacity:1;fill-rule:nonzero;stroke:#002e99;stroke-width:1;stroke-opacity:0.592157;marker:none;enable-background:accumulate" />
  <g
     transform="matrix(0.76077734,0,0,0.26758061,-2.6712251,19.02032)"
     id="g4933">
    <g
       style="opacity:0.4"
       transform="matrix(1.0526,0,0,1.2857,-1.2632,-13.429)"
       id="g4935">
      <rect
         style="fill:url(#radialGradient4213)"
         height="7"
         width="5"
         y="40"
         x="38"
         id="rect4937" />
      <rect
         style="fill:url(#radialGradient4215)"
         transform="scale(-1,-1)"
         height="7"
         width="5"
         y="-47"
         x="-10"
         id="rect4939" />
      <rect
         style="fill:url(#linearGradient4217)"
         height="7"
         width="28"
         y="40"
         x="10"
         id="rect4941" />
    </g>
  </g>
  <path
     style="opacity:0.5;fill:none;stroke:url(#linearGradient2875);stroke-width:1;stroke-linecap:butt;stroke-linejoin:miter;stroke-miterlimit:4;stroke-dasharray:none"
     d="M 4.5062497,6.5001143 27.497685,6.5056443 27.5,24.489372 h -23 z"
     id="rect4945" />
  <path
     id="path4227"
     d="m 18.479434,3.4882045 0.01883,-1.954386 -4.993722,-0.027661 c -0.01913,0.7288589 -0.0013,1.2695233 -0.0013,1.9925523 l 2.513136,0 z"
     style="color:#000000;display:inline;overflow:visible;visibility:visible;opacity:1;fill:#4d4d4d;fill-opacity:1;fill-rule:nonzero;stroke:url(#linearGradient4231);stroke-width:1;stroke-miterlimit:4;stroke-dasharray:none;stroke-opacity:1;marker:none;enable-background:accumulate" />
  <path
     id="path4473"
     d="M 30.5,6.5000003 V 4.3000027 C 30.5,3.8568026 30.06156,3.5000002 29.516951,3.5000002 H 2.4830506 C 1.9384403,3.5000002 1.5,3.8568026 1.5,4.3000027 v 2.1999976 z"
     style="color:#000000;display:inline;overflow:visible;visibility:visible;opacity:1;fill:#4d4d4d;fill-opacity:1;fill-rule:nonzero;stroke:url(#linearGradient6504);stroke-width:1;stroke-miterlimit:4;stroke-dasharray:none;stroke-opacity:1;marker:none;enable-background:accumulate" />
  <g
     transform="translate(166.3815,-1006.9704)"
     id="layer1" />
  <path
     style="opacity:1;fill:#000000;fill-opacity:1;fill-rule:evenodd;stroke:#414141;stroke-width:0.47244954;stroke-miterlimit:4;stroke-dasharray:none;stroke-opacity:1"
     d="m 4.0606598,30.742341 c 0,0 2.3697661,0.02537 3.3644498,0.02209 L 14.44888,28.057712 c 0.597294,-0.241735 2.144268,-0.246846 2.773613,-0.0092 l 7.459725,2.692855 3.327477,0.01293 -11.018638,-4.407007 c -0.276658,-0.104508 -0.782446,0.394292 -1.325615,0.389728 -0.680497,-1.828426 -10.0570721,3.337015 -11.6047822,4.005338 z"
     id="path4191" />
  <path
     style="color:#000000;display:inline;overflow:visible;visibility:visible;opacity:1;fill:#4d4d4d;fill-opacity:1;fill-rule:nonzero;stroke:url(#linearGradient4255);stroke-width:1;stroke-miterlimit:4;stroke-dasharray:none;stroke-opacity:1;marker:none;enable-background:accumulate"
     d="m 30.500001,25.499999 v 2.199996 c 0,0.443201 -0.43844,0.800004 -0.983049,0.800004 H 2.4830506 C 1.9384403,28.499999 1.5,28.143196 1.5,27.699995 v -2.199996 z"
     id="path4251" />
  <path
     style="opacity:0.25;fill:none;stroke:url(#linearGradient1601);stroke-width:1;stroke-linecap:butt;stroke-linejoin:miter;stroke-miterlimit:4;stroke-dasharray:none"
     d="M 2.5168517,5.9874558 2.504896,4.9378418 C 2.4793009,4.6181757 2.5703658,4.5000263 3.4653615,4.5000263 H 28.47031 c 0.734295,0 1.006364,0.086391 1.00972,0.2879918 l 0.02004,1.2037169"
     id="path1066" />
  <path
     style="opacity:0.25;fill:none;stroke:url(#linearGradient1216);stroke-width:1;stroke-linecap:butt;stroke-linejoin:miter;stroke-miterlimit:4;stroke-dasharray:none"
     d="M 2.5168514,27.987456 2.504896,26.937842 C 2.479301,26.618176 2.570366,26.500026 3.4653615,26.500026 H 28.47031 c 0.734295,0 1.006364,0.08639 1.00972,0.287992 l 0.02004,1.203717"
     id="path1066-3" />
  <g
     transform="translate(35.82458,-966.46169)"
     id="layer1-9" />
  <rect
     style="opacity:0.5;vector-effect:none;fill:#002e99;fill-opacity:1;stroke:none;stroke-width:0.999997;stroke-linecap:butt;stroke-linejoin:miter;stroke-miterlimit:100;stroke-dasharray:none;stroke-dashoffset:0;stroke-opacity:0.156863;marker:none;paint-order:normal"
     id="rect1289"
     width="24"
     height="1"
     x="4"
     y="7" />
  <rect
     style="font-variation-settings:normal;opacity:0.07;vector-effect:none;fill:#000000;fill-opacity:1;stroke:none;stroke-width:0.907386;stroke-linecap:butt;stroke-linejoin:miter;stroke-miterlimit:4;stroke-dasharray:none;stroke-dashoffset:0;stroke-opacity:1;-inkscape-stroke:none;marker:none;paint-order:normal;stop-color:#000000"
     id="rect1289-9"
     width="24"
     height="2"
     x="4"
     y="7" />
  <rect
     style="opacity:1;fill:#ffffff;fill-opacity:1;fill-rule:nonzero;stroke:none;stroke-width:1;stroke-linecap:butt;stroke-linejoin:miter;stroke-miterlimit:4;stroke-dasharray:none;stroke-opacity:1"
     id="rect4263"
     width="3"
     height="1"
     x="6"
     y="11.016448"
     ry="0.0546875" />
  <rect
     style="opacity:1;fill:#ffffff;fill-opacity:1;fill-rule:nonzero;stroke:none;stroke-width:1;stroke-linecap:butt;stroke-linejoin:miter;stroke-miterlimit:4;stroke-dasharray:none;stroke-opacity:1"
     id="rect4265"
     width="2"
     height="1"
     x="10"
     y="11.016448"
     ry="0.0546875" />
  <rect
     style="opacity:1;fill:#ffffff;fill-opacity:1;fill-rule:nonzero;stroke:none;stroke-width:1;stroke-linecap:butt;stroke-linejoin:miter;stroke-miterlimit:4;stroke-dasharray:none;stroke-opacity:1"
     id="rect4267"
     width="3"
     height="1"
     x="13"
     y="11.016448"
     ry="0.0546875" />
  <rect
     style="opacity:1;fill:#ffffff;fill-opacity:1;fill-rule:nonzero;stroke:none;stroke-width:1;stroke-linecap:butt;stroke-linejoin:miter;stroke-miterlimit:4;stroke-dasharray:none;stroke-opacity:1"
     id="rect4269"
     width="2"
     height="1"
     x="6"
     y="15.032074"
     ry="0.0546875" />
  <rect
     style="opacity:1;fill:#ffffff;fill-opacity:1;fill-rule:nonzero;stroke:none;stroke-width:1;stroke-linecap:butt;stroke-linejoin:miter;stroke-miterlimit:4;stroke-dasharray:none;stroke-opacity:1"
     id="rect4271"
     width="6"
     height="1"
     x="9"
     y="15.032074"
     ry="0.0546875" />
  <rect
     style="opacity:1;fill:#ffffff;fill-opacity:1;fill-rule:nonzero;stroke:none;stroke-width:1;stroke-linecap:butt;stroke-linejoin:miter;stroke-miterlimit:4;stroke-dasharray:none;stroke-opacity:1"
     id="rect4273"
     width="3"
     height="1"
     x="6"
     y="19.016445"
     ry="0.0546875" />
  <rect
     style="opacity:1;fill:#ffffff;fill-opacity:1;fill-rule:nonzero;stroke:none;stroke-width:1;stroke-linecap:butt;stroke-linejoin:miter;stroke-miterlimit:4;stroke-dasharray:none;stroke-opacity:1"
     id="rect4275"
     width="1"
     height="1"
     x="10"
     y="19.016445"
     ry="0.0546875" />
  <path
     id="rect4282-0-6"
     style="font-variation-settings:normal;opacity:0.07;vector-effect:none;fill:#000000;fill-opacity:1;fill-rule:nonzero;stroke:none;stroke-width:0.907385;stroke-linecap:butt;stroke-linejoin:miter;stroke-miterlimit:4;stroke-dasharray:none;stroke-dashoffset:0;stroke-opacity:1;-inkscape-stroke:none;stop-color:#000000;stop-opacity:1"
     d="M 18.380859,11 C 17.592922,11 17,11.67928 17,12.408203 v -0.337891 c 0,-0.566867 -0.487837,-1.054687 -1.054688,-1.054687 h -2.890624 c -0.212479,0 -0.385945,0.120775 -0.554688,0.236328 C 12.331257,11.1364 12.157791,11.015625 11.945312,11.015625 H 10.054688 C 9.8422095,11.015625 9.6687431,11.1364 9.5,11.251953 9.3312595,11.136412 9.1578218,11.015625 8.9453125,11.015625 H 6.0546875 C 5.487658,11.015625 5,11.503282 5,12.070312 v 0.890626 c 0,0.566966 0.487753,1.054687 1.0546875,1.054687 h 2.890625 C 9.1578096,14.015604 9.3312759,13.89483 9.5,13.779297 c 0.1687431,0.115553 0.3422095,0.236328 0.554688,0.236328 h 1.890624 c 0.212487,0 0.385946,-0.120777 0.554688,-0.236328 0.168743,0.11555 0.342203,0.236328 0.554688,0.236328 h 2.890624 C 16.512185,14.015625 17,13.527822 17,12.960938 v 7.109374 c 0,-0.566867 -0.487837,-1.054687 -1.054688,-1.054687 h -3.890624 c -0.212479,0 -0.385945,0.120775 -0.554688,0.236328 C 11.331257,19.1364 11.157791,19.015625 10.945312,19.015625 H 10.054688 C 9.8422095,19.015625 9.6687431,19.1364 9.5,19.251953 9.3312595,19.136412 9.1578218,19.015625 8.9453125,19.015625 H 6.0546875 C 5.487658,19.015625 5,19.503282 5,20.070312 v 0.890626 c 0,0.566966 0.487753,1.054687 1.0546875,1.054687 h 2.890625 C 9.1578096,22.015604 9.3312759,21.89483 9.5,21.779297 c 0.1687431,0.115553 0.3422095,0.236328 0.554688,0.236328 h 0.890624 c 0.212479,0 0.385945,-0.120775 0.554688,-0.236328 0.168743,0.11555 0.342203,0.236328 0.554688,0.236328 h 3.890624 C 16.512163,22.015625 17,21.527805 17,20.960938 V 20.591797 C 17,21.32072 17.592922,22 18.380859,22 c 0.279027,0 0.513136,-0.09268 0.669922,-0.181641 l 7.232422,-4.08789 C 26.715616,17.487789 27,17.018541 27,16.5 27,15.981471 26.715584,15.512205 26.283203,15.269531 l -7.232422,-4.08789 C 18.894148,11.092798 18.659987,11 18.380859,11 Z M 6.0546875,15.03125 C 5.48768,15.03125 5,15.51894 5,16.085938 v 0.890624 c 0,0.56695 0.487753,1.054688 1.0546875,1.054688 h 1.890625 C 8.157808,18.031236 8.33127,17.910461 8.5,17.794922 8.6687405,17.910465 8.8421782,18.03125 9.0546875,18.03125 H 14.945312 C 15.512163,18.03125 16,17.543413 16,16.976562 V 16.085938 C 16,15.519087 15.512163,15.03125 14.945312,15.03125 H 9.0546875 C 8.8421508,15.03125 8.6687384,15.152041 8.5,15.267578 8.3312595,15.152035 8.1578218,15.03125 7.9453125,15.03125 Z" />
  <rect
     style="opacity:1;fill:#ffffff;fill-opacity:1;fill-rule:nonzero;stroke:none;stroke-width:1;stroke-linecap:butt;stroke-linejoin:miter;stroke-miterlimit:4;stroke-dasharray:none;stroke-opacity:1"
     id="rect4277"
     width="4"
     height="1"
     x="12"
     y="19.016445"
     ry="0.0546875" />
  <path
     id="rect4282-0"
     style="fill:#000000;fill-opacity:1;fill-rule:nonzero;stroke:none;stroke-width:0.907385;stroke-linecap:butt;stroke-linejoin:miter;stroke-miterlimit:4;stroke-dasharray:none;stroke-opacity:1;font-variation-settings:normal;opacity:0.15;vector-effect:none;stroke-dashoffset:0;-inkscape-stroke:none;stop-color:#000000;stop-opacity:1"
     d="M 18.380859,12 C 18.170464,12 18,12.182268 18,12.408203 v 8.183594 C 18,20.817732 18.170464,21 18.380859,21 c 0.06417,0 0.122732,-0.02068 0.175782,-0.05078 l 7.236328,-4.089844 C 25.914655,16.791083 26,16.657661 26,16.5 26,16.34234 25.914658,16.208923 25.792969,16.140625 L 18.556641,12.050781 C 18.503591,12.020691 18.44503,12 18.380859,12 Z M 6.0546875,12.015625 C 6.0243906,12.015625 6,12.040016 6,12.070312 v 0.890626 c 0,0.0303 0.024391,0.05469 0.054687,0.05469 H 8.945312 C 8.9756094,13.015625 9,12.991234 9,12.960938 v -0.890626 c 0,-0.0303 -0.024391,-0.05469 -0.054687,-0.05469 z m 4.0000005,0 c -0.0303,0 -0.05469,0.02439 -0.05469,0.05469 v 0.890626 c 0,0.0303 0.02439,0.05469 0.05469,0.05469 h 1.890624 c 0.0303,0 0.05469,-0.02439 0.05469,-0.05469 v -0.890626 c 0,-0.0303 -0.02439,-0.05469 -0.05469,-0.05469 z m 3,0 c -0.0303,0 -0.05469,0.02439 -0.05469,0.05469 v 0.890626 c 0,0.0303 0.02439,0.05469 0.05469,0.05469 h 2.890624 c 0.0303,0 0.05469,-0.02439 0.05469,-0.05469 v -0.890626 c 0,-0.0303 -0.02439,-0.05469 -0.05469,-0.05469 z M 6.0546875,16.03125 C 6.0243906,16.03125 6,16.055641 6,16.085938 v 0.890624 c 0,0.0303 0.024391,0.05469 0.054687,0.05469 H 7.945312 C 7.9756094,17.03125 8,17.006859 8,16.976562 v -0.890624 c 0,-0.0303 -0.024391,-0.05469 -0.054687,-0.05469 z m 3,0 C 9.0243906,16.03125 9,16.055641 9,16.085938 v 0.890624 c 0,0.0303 0.024391,0.05469 0.054687,0.05469 h 5.890624 c 0.0303,0 0.05469,-0.02439 0.05469,-0.05469 v -0.890624 c 0,-0.0303 -0.02439,-0.05469 -0.05469,-0.05469 z m -3,3.984375 C 6.0243906,20.015625 6,20.040016 6,20.070312 v 0.890626 c 0,0.0303 0.024391,0.05469 0.054687,0.05469 H 8.945312 C 8.9756094,21.015625 9,20.991234 9,20.960938 v -0.890626 c 0,-0.0303 -0.024391,-0.05469 -0.054687,-0.05469 z m 4.0000005,0 c -0.0303,0 -0.05469,0.02439 -0.05469,0.05469 v 0.890626 c 0,0.0303 0.02439,0.05469 0.05469,0.05469 h 0.890624 c 0.0303,0 0.05469,-0.02439 0.05469,-0.05469 v -0.890626 c 0,-0.0303 -0.02439,-0.05469 -0.05469,-0.05469 z m 2,0 c -0.0303,0 -0.05469,0.02439 -0.05469,0.05469 v 0.890626 c 0,0.0303 0.02439,0.05469 0.05469,0.05469 h 3.890624 c 0.0303,0 0.05469,-0.02439 0.05469,-0.05469 v -0.890626 c 0,-0.0303 -0.02439,-0.05469 -0.05469,-0.05469 z" />
  <path
     id="rect4282"
     style="opacity:1;fill:#ffffff;fill-opacity:1;fill-rule:nonzero;stroke:none;stroke-width:1;stroke-linecap:butt;stroke-linejoin:miter;stroke-miterlimit:4;stroke-dasharray:none;stroke-opacity:1"
     d="M 18.380859 11 C 18.170464 11 18 11.182268 18 11.408203 L 18 19.591797 C 18 19.817732 18.170464 20 18.380859 20 C 18.445029 20 18.503591 19.979319 18.556641 19.949219 L 25.792969 15.859375 C 25.914655 15.791083 26 15.657661 26 15.5 C 26 15.34234 25.914658 15.208923 25.792969 15.140625 L 18.556641 11.050781 C 18.503591 11.020691 18.44503 11 18.380859 11 z M 6.0546875 11.015625 C 6.0243906 11.015625 6 11.040016 6 11.070312 L 6 11.960938 C 6 11.991234 6.0243906 12.015625 6.0546875 12.015625 L 8.9453125 12.015625 C 8.9756094 12.015625 9 11.991234 9 11.960938 L 9 11.070312 C 9 11.040016 8.9756094 11.015625 8.9453125 11.015625 L 6.0546875 11.015625 z M 10.054688 11.015625 C 10.024391 11.015625 10 11.040016 10 11.070312 L 10 11.960938 C 10 11.991234 10.024391 12.015625 10.054688 12.015625 L 11.945312 12.015625 C 11.975609 12.015625 12 11.991234 12 11.960938 L 12 11.070312 C 12 11.040016 11.975609 11.015625 11.945312 11.015625 L 10.054688 11.015625 z M 13.054688 11.015625 C 13.024391 11.015625 13 11.040016 13 11.070312 L 13 11.960938 C 13 11.991234 13.024391 12.015625 13.054688 12.015625 L 15.945312 12.015625 C 15.975609 12.015625 16 11.991234 16 11.960938 L 16 11.070312 C 16 11.040016 15.975609 11.015625 15.945312 11.015625 L 13.054688 11.015625 z M 6.0546875 15.03125 C 6.0243906 15.03125 6 15.055641 6 15.085938 L 6 15.976562 C 6 16.006859 6.0243906 16.03125 6.0546875 16.03125 L 7.9453125 16.03125 C 7.9756094 16.03125 8 16.006859 8 15.976562 L 8 15.085938 C 8 15.055641 7.9756094 15.03125 7.9453125 15.03125 L 6.0546875 15.03125 z M 9.0546875 15.03125 C 9.0243906 15.03125 9 15.055641 9 15.085938 L 9 15.976562 C 9 16.006859 9.0243906 16.03125 9.0546875 16.03125 L 14.945312 16.03125 C 14.975609 16.03125 15 16.006859 15 15.976562 L 15 15.085938 C 15 15.055641 14.975609 15.03125 14.945312 15.03125 L 9.0546875 15.03125 z M 6.0546875 19.015625 C 6.0243906 19.015625 6 19.040016 6 19.070312 L 6 19.960938 C 6 19.991234 6.0243906 20.015625 6.0546875 20.015625 L 8.9453125 20.015625 C 8.9756094 20.015625 9 19.991234 9 19.960938 L 9 19.070312 C 9 19.040016 8.9756094 19.015625 8.9453125 19.015625 L 6.0546875 19.015625 z M 10.054688 19.015625 C 10.024391 19.015625 10 19.040016 10 19.070312 L 10 19.960938 C 10 19.991234 10.024391 20.015625 10.054688 20.015625 L 10.945312 20.015625 C 10.975609 20.015625 11 19.991234 11 19.960938 L 11 19.070312 C 11 19.040016 10.975609 19.015625 10.945312 19.015625 L 10.054688 19.015625 z M 12.054688 19.015625 C 12.024391 19.015625 12 19.040016 12 19.070312 L 12 19.960938 C 12 19.991234 12.024391 20.015625 12.054688 20.015625 L 15.945312 20.015625 C 15.975609 20.015625 16 19.991234 16 19.960938 L 16 19.070312 C 16 19.040016 15.975609 19.015625 15.945312 19.015625 L 12.054688 19.015625 z " />
</svg>
