<?xml version="1.0" encoding="UTF-8" standalone="no"?>
<svg
   xmlns:dc="http://purl.org/dc/elements/1.1/"
   xmlns:cc="http://creativecommons.org/ns#"
   xmlns:rdf="http://www.w3.org/1999/02/22-rdf-syntax-ns#"
   xmlns:svg="http://www.w3.org/2000/svg"
   xmlns="http://www.w3.org/2000/svg"
   height="16.0037"
   id="svg7384"
   version="1.1"
   width="16.003796">
  <metadata
     id="metadata90">
    <rdf:RDF>
      <cc:Work
         rdf:about="">
        <dc:format>image/svg+xml</dc:format>
        <dc:type
           rdf:resource="http://purl.org/dc/dcmitype/StillImage" />
        <dc:title>elementary Symbolic Icon Theme</dc:title>
      </cc:Work>
    </rdf:RDF>
  </metadata>
  <title
     id="title9167">elementary Symbolic Icon Theme</title>
  <defs
     id="defs7386">
    <filter
       color-interpolation-filters="sRGB"
       id="filter7554">
      <feBlend
         id="feBlend7556"
         in2="BackgroundImage"
         mode="darken" />
    </filter>
    <filter
       color-interpolation-filters="sRGB"
       id="filter7554-7">
      <feBlend
         id="feBlend7556-6"
         in2="BackgroundImage"
         mode="darken" />
    </filter>
  </defs>
  <g
     id="layer9"
     style="display:inline"
     transform="translate(-793.02488,397.97987)" />
  <g
     id="layer10"
     style="display:inline"
     transform="translate(-793.02488,397.97987)" />
  <g
     id="layer13"
     style="display:inline"
     transform="translate(-793.02488,397.97987)" />
  <g
     id="layer14"
     transform="translate(-793.02488,397.97987)" />
  <g
     id="layer15"
     style="display:inline"
     transform="translate(-793.02488,397.97987)">
    <path
       d="m 802.96617,-397.97612 c -0.0645,0.008 -0.12753,0.0279 -0.1875,0.0625 l -5.0625,2.9375 3.96875,0 0.8125,-0.46875 0.28125,0.46875 2.28125,0 -1.59375,-2.75 c -0.10388,-0.17992 -0.30663,-0.27423 -0.5,-0.25 z m -6.9375,3.96875 -2.75,1.59375 c -0.23989,0.1385 -0.326,0.44761 -0.1875,0.6875 l 2.9375,5.0625 0,-3.96875 -0.46875,-0.8125 0.46875,-0.28125 0,-2.28125 z m 1.5,0.0312 c -0.277,0 -0.5,0.223 -0.5,0.5 l 0,11 c 0,0.277 0.223,0.5 0.5,0.5 l 11,0 c 0.277,0 0.5,-0.223 0.5,-0.5 l 0,-11 c 0,-0.277 -0.223,-0.5 -0.5,-0.5 l -11,0 z m 1.5,2 8,0 0,7 -8,0 0,-7 z"
       id="path17153"
       style="color:#000000;fill:#bebebe;fill-opacity:1;fill-rule:nonzero;stroke:none;stroke-width:1;marker:none;visibility:visible;display:inline;overflow:visible;enable-background:accumulate" />
  </g>
  <g
     id="g71291"
     style="display:inline"
     transform="translate(-793.02488,397.97987)" />
  <g
     id="g4953"
     style="display:inline"
     transform="translate(-793.02488,397.97987)" />
  <g
     id="layer12"
     style="display:inline"
     transform="translate(-793.02488,397.97987)" />
</svg>
